<svg width="1200" height="560" viewBox="0 0 1200 560" fill="none" xmlns="http://www.w3.org/2000/svg">
<path d="M448.32 316V252.512H462.784L464.192 261.088C466.24 258.016 468.928 255.584 472.256 253.792C475.669 251.915 479.595 250.976 484.032 250.976C493.845 250.976 500.8 254.773 504.896 262.368C507.2 258.869 510.272 256.096 514.112 254.048C518.037 252 522.304 250.976 526.912 250.976C535.189 250.976 541.547 253.451 545.984 258.4C550.421 263.349 552.64 270.603 552.64 280.16V316H536.256V281.696C536.256 276.235 535.189 272.053 533.056 269.152C531.008 266.251 527.808 264.8 523.456 264.8C519.019 264.8 515.435 266.421 512.704 269.664C510.059 272.907 508.736 277.429 508.736 283.232V316H492.352V281.696C492.352 276.235 491.285 272.053 489.152 269.152C487.019 266.251 483.733 264.8 479.296 264.8C474.944 264.8 471.403 266.421 468.672 269.664C466.027 272.907 464.704 277.429 464.704 283.232V316H448.32ZM593.923 317.536C587.523 317.536 581.848 316.171 576.899 313.44C571.95 310.709 568.067 306.869 565.251 301.92C562.435 296.971 561.027 291.253 561.027 284.768C561.027 278.197 562.392 272.352 565.123 267.232C567.939 262.112 571.779 258.144 576.643 255.328C581.592 252.427 587.395 250.976 594.051 250.976C600.28 250.976 605.784 252.341 610.563 255.072C615.342 257.803 619.054 261.557 621.699 266.336C624.43 271.029 625.795 276.277 625.795 282.08C625.795 283.019 625.752 284 625.667 285.024C625.667 286.048 625.624 287.115 625.539 288.224H577.283C577.624 293.173 579.331 297.056 582.403 299.872C585.56 302.688 589.358 304.096 593.795 304.096C597.123 304.096 599.896 303.371 602.115 301.92C604.419 300.384 606.126 298.421 607.235 296.032H623.875C622.68 300.043 620.675 303.712 617.859 307.04C615.128 310.283 611.715 312.843 607.619 314.72C603.608 316.597 599.043 317.536 593.923 317.536ZM594.051 264.288C590.04 264.288 586.499 265.44 583.427 267.744C580.355 269.963 578.392 273.376 577.539 277.984H609.155C608.899 273.803 607.363 270.475 604.547 268C601.731 265.525 598.232 264.288 594.051 264.288ZM649.107 316L625.811 252.512H642.963L659.091 300.512L675.219 252.512H692.371L668.947 316H649.107ZM696.177 285.792V272.096H749.809V285.792H696.177Z" fill="url(#paint0_linear_233_286)"/>
<path d="M802.952 317.536C798.173 317.536 793.992 316.64 790.408 314.848C786.824 313.056 783.923 310.539 781.704 307.296L779.912 316H765.32V223.84H781.704V261.6C783.752 258.784 786.44 256.309 789.768 254.176C793.181 252.043 797.576 250.976 802.952 250.976C808.925 250.976 814.259 252.427 818.952 255.328C823.645 258.229 827.357 262.197 830.088 267.232C832.819 272.267 834.184 277.984 834.184 284.384C834.184 290.784 832.819 296.501 830.088 301.536C827.357 306.485 823.645 310.411 818.952 313.312C814.259 316.128 808.925 317.536 802.952 317.536ZM799.496 303.2C804.701 303.2 809.011 301.451 812.424 297.952C815.837 294.453 817.544 289.931 817.544 284.384C817.544 278.837 815.837 274.272 812.424 270.688C809.011 267.104 804.701 265.312 799.496 265.312C794.205 265.312 789.853 267.104 786.44 270.688C783.112 274.187 781.448 278.709 781.448 284.256C781.448 289.803 783.112 294.368 786.44 297.952C789.853 301.451 794.205 303.2 799.496 303.2ZM874.164 317.536C868.02 317.536 862.473 316.128 857.524 313.312C852.66 310.496 848.777 306.613 845.876 301.664C843.06 296.629 841.652 290.827 841.652 284.256C841.652 277.685 843.103 271.925 846.004 266.976C848.905 261.941 852.788 258.016 857.652 255.2C862.601 252.384 868.148 250.976 874.292 250.976C880.351 250.976 885.812 252.384 890.676 255.2C895.625 258.016 899.508 261.941 902.324 266.976C905.225 271.925 906.676 277.685 906.676 284.256C906.676 290.827 905.225 296.629 902.324 301.664C899.508 306.613 895.625 310.496 890.676 313.312C885.727 316.128 880.223 317.536 874.164 317.536ZM874.164 303.328C878.431 303.328 882.143 301.749 885.3 298.592C888.457 295.349 890.036 290.571 890.036 284.256C890.036 277.941 888.457 273.205 885.3 270.048C882.143 266.805 878.473 265.184 874.292 265.184C869.94 265.184 866.185 266.805 863.028 270.048C859.956 273.205 858.42 277.941 858.42 284.256C858.42 290.571 859.956 295.349 863.028 298.592C866.185 301.749 869.897 303.328 874.164 303.328ZM946.669 317.536C940.525 317.536 934.978 316.128 930.029 313.312C925.165 310.496 921.282 306.613 918.381 301.664C915.565 296.629 914.157 290.827 914.157 284.256C914.157 277.685 915.608 271.925 918.509 266.976C921.41 261.941 925.293 258.016 930.157 255.2C935.106 252.384 940.653 250.976 946.797 250.976C952.856 250.976 958.317 252.384 963.181 255.2C968.13 258.016 972.013 261.941 974.829 266.976C977.73 271.925 979.181 277.685 979.181 284.256C979.181 290.827 977.73 296.629 974.829 301.664C972.013 306.613 968.13 310.496 963.181 313.312C958.232 316.128 952.728 317.536 946.669 317.536ZM946.669 303.328C950.936 303.328 954.648 301.749 957.805 298.592C960.962 295.349 962.541 290.571 962.541 284.256C962.541 277.941 960.962 273.205 957.805 270.048C954.648 266.805 950.978 265.184 946.797 265.184C942.445 265.184 938.69 266.805 935.533 270.048C932.461 273.205 930.925 277.941 930.925 284.256C930.925 290.571 932.461 295.349 935.533 298.592C938.69 301.749 942.402 303.328 946.669 303.328ZM1014.95 317.536C1009.32 317.536 1004.37 316.64 1000.1 314.848C995.835 312.971 992.422 310.411 989.862 307.168C987.302 303.925 985.766 300.171 985.254 295.904H1001.77C1002.28 298.379 1003.64 300.512 1005.86 302.304C1008.17 304.011 1011.11 304.864 1014.69 304.864C1018.28 304.864 1020.88 304.139 1022.5 302.688C1024.21 301.237 1025.06 299.573 1025.06 297.696C1025.06 294.965 1023.87 293.131 1021.48 292.192C1019.09 291.168 1015.76 290.187 1011.49 289.248C1008.76 288.651 1005.99 287.925 1003.17 287.072C1000.36 286.219 997.755 285.152 995.366 283.872C993.062 282.507 991.185 280.8 989.734 278.752C988.283 276.619 987.558 274.016 987.558 270.944C987.558 265.312 989.777 260.576 994.214 256.736C998.737 252.896 1005.05 250.976 1013.16 250.976C1020.67 250.976 1026.64 252.725 1031.08 256.224C1035.6 259.723 1038.29 264.544 1039.14 270.688H1023.65C1022.72 265.995 1019.17 263.648 1013.03 263.648C1009.96 263.648 1007.57 264.245 1005.86 265.44C1004.24 266.635 1003.43 268.128 1003.43 269.92C1003.43 271.797 1004.67 273.291 1007.14 274.4C1009.62 275.509 1012.9 276.533 1017 277.472C1021.44 278.496 1025.49 279.648 1029.16 280.928C1032.91 282.123 1035.9 283.957 1038.12 286.432C1040.34 288.821 1041.45 292.277 1041.45 296.8C1041.53 300.725 1040.51 304.267 1038.37 307.424C1036.24 310.581 1033.17 313.056 1029.16 314.848C1025.15 316.64 1020.41 317.536 1014.95 317.536ZM1077.13 316C1070.47 316 1065.14 314.379 1061.13 311.136C1057.12 307.893 1055.11 302.133 1055.11 293.856V266.208H1044.23V252.512H1055.11L1057.03 235.488H1071.5V252.512H1088.65V266.208H1071.5V293.984C1071.5 297.056 1072.14 299.189 1073.42 300.384C1074.78 301.493 1077.09 302.048 1080.33 302.048H1088.26V316H1077.13Z" fill="url(#paint1_linear_233_286)"/>
<path fill-rule="evenodd" clip-rule="evenodd" d="M240 220L120 280L240 340V220Z" fill="#3CC9E9"/>
<path fill-rule="evenodd" clip-rule="evenodd" d="M228 442L133.417 300.125L228 347.417V442Z" fill="#64748B"/>
<path fill-rule="evenodd" clip-rule="evenodd" d="M240 220L120 280L240 100V220Z" fill="#30F2E0"/>
<path fill-rule="evenodd" clip-rule="evenodd" d="M252 212.584L346.584 259.875L252 118V212.584Z" fill="#94A3B8"/>
<path fill-rule="evenodd" clip-rule="evenodd" d="M240 220L360 280L240 340V220Z" fill="#48ABF4"/>
<path fill-rule="evenodd" clip-rule="evenodd" d="M240 460L360 280L240 340V460Z" fill="#6469E4"/>
<defs>
<linearGradient id="paint0_linear_233_286" x1="757" y1="192" x2="431.015" y2="297.126" gradientUnits="userSpaceOnUse">
<stop stop-color="#334155"/>
<stop offset="1" stop-color="#64748B"/>
</linearGradient>
<linearGradient id="paint1_linear_233_286" x1="1095" y1="192" x2="751.845" y2="309.994" gradientUnits="userSpaceOnUse">
<stop stop-color="#6469E4"/>
<stop offset="1" stop-color="#3CC9E9"/>
</linearGradient>
</defs>
</svg>
